<svg id="visual" viewBox="0 0 900 600" width="900" height="600" xmlns="http://www.w3.org/2000/svg" xmlns:xlink="http://www.w3.org/1999/xlink" version="1.1"><path d="M155 0L156.7 12.5C158.3 25 161.7 50 182.2 75C202.7 100 240.3 125 244.3 150C248.3 175 218.7 200 221.3 225C224 250 259 275 280.2 300C301.3 325 308.7 350 291.3 375C274 400 232 425 201.2 450C170.3 475 150.7 500 167 525C183.3 550 235.7 575 261.8 587.5L288 600L0 600L0 587.5C0 575 0 550 0 525C0 500 0 475 0 450C0 425 0 400 0 375C0 350 0 325 0 300C0 275 0 250 0 225C0 200 0 175 0 150C0 125 0 100 0 75C0 50 0 25 0 12.5L0 0Z" fill="#009fe3" stroke-linecap="round" stroke-linejoin="miter"></path></svg>