<svg id="visual" viewBox="0 0 900 600" width="900" height="600" xmlns="http://www.w3.org/2000/svg" xmlns:xlink="http://www.w3.org/1999/xlink" version="1.1"><path d="M191 0L194.3 12.5C197.7 25 204.3 50 191.5 75C178.7 100 146.3 125 154.3 150C162.3 175 210.7 200 218.5 225C226.3 250 193.7 275 170 300C146.3 325 131.7 350 130.2 375C128.7 400 140.3 425 162.7 450C185 475 218 500 238.3 525C258.7 550 266.3 575 270.2 587.5L274 600L0 600L0 587.5C0 575 0 550 0 525C0 500 0 475 0 450C0 425 0 400 0 375C0 350 0 325 0 300C0 275 0 250 0 225C0 200 0 175 0 150C0 125 0 100 0 75C0 50 0 25 0 12.5L0 0Z" fill="#009fe3" stroke-linecap="round" stroke-linejoin="miter"></path></svg>