<svg id="visual" viewBox="0 0 900 600" width="900" height="600" xmlns="http://www.w3.org/2000/svg" xmlns:xlink="http://www.w3.org/1999/xlink" version="1.1"><path d="M428 0L451 12.5C474 25 520 50 515.7 75C511.3 100 456.7 125 426 150C395.3 175 388.7 200 420.7 225C452.7 250 523.3 275 553.8 300C584.3 325 574.7 350 566.2 375C557.7 400 550.3 425 560.2 450C570 475 597 500 598.2 525C599.3 550 574.7 575 562.3 587.5L550 600L0 600L0 587.5C0 575 0 550 0 525C0 500 0 475 0 450C0 425 0 400 0 375C0 350 0 325 0 300C0 275 0 250 0 225C0 200 0 175 0 150C0 125 0 100 0 75C0 50 0 25 0 12.5L0 0Z" fill="#009fe3" stroke-linecap="round" stroke-linejoin="miter"></path></svg>