<svg id="visual" viewBox="0 0 900 600" width="900" height="600" xmlns="http://www.w3.org/2000/svg" xmlns:xlink="http://www.w3.org/1999/xlink" version="1.1"><path d="M458 0L428.3 12.5C398.7 25 339.3 50 326.3 75C313.3 100 346.7 125 367.2 150C387.7 175 395.3 200 405.7 225C416 250 429 275 424.5 300C420 325 398 350 390.8 375C383.7 400 391.3 425 433 450C474.7 475 550.3 500 574.8 525C599.3 550 572.7 575 559.3 587.5L546 600L0 600L0 587.5C0 575 0 550 0 525C0 500 0 475 0 450C0 425 0 400 0 375C0 350 0 325 0 300C0 275 0 250 0 225C0 200 0 175 0 150C0 125 0 100 0 75C0 50 0 25 0 12.5L0 0Z" fill="#009fe3" stroke-linecap="round" stroke-linejoin="miter"></path></svg>