<svg id="visual" viewBox="0 0 900 600" width="900" height="600" xmlns="http://www.w3.org/2000/svg" xmlns:xlink="http://www.w3.org/1999/xlink" version="1.1"><path d="M514 0L485.5 12.5C457 25 400 50 373.8 75C347.7 100 352.3 125 382.3 150C412.3 175 467.7 200 478.2 225C488.7 250 454.3 275 472.2 300C490 325 560 350 544 375C528 400 426 425 410.8 450C395.7 475 467.3 500 490.2 525C513 550 487 575 474 587.5L461 600L0 600L0 587.5C0 575 0 550 0 525C0 500 0 475 0 450C0 425 0 400 0 375C0 350 0 325 0 300C0 275 0 250 0 225C0 200 0 175 0 150C0 125 0 100 0 75C0 50 0 25 0 12.5L0 0Z" fill="#009fe3" stroke-linecap="round" stroke-linejoin="miter"></path></svg>