<svg id="visual" viewBox="0 0 900 600" width="900" height="600" xmlns="http://www.w3.org/2000/svg" xmlns:xlink="http://www.w3.org/1999/xlink" version="1.1">
<path d="M0 152L8.3 137.7C16.7 123.3 33.3 94.7 50 93C66.7 91.3 83.3 116.7 100 123C116.7 129.3 133.3 116.7 150 116.7C166.7 116.7 183.3 129.3 200 121.8C216.7 114.3 233.3 86.7 250 82.7C266.7 78.7 283.3 98.3 300 104C316.7 109.7 333.3 101.3 350 97.8C366.7 94.3 383.3 95.7 400 92C416.7 88.3 433.3 79.7 450 76.8C466.7 74 483.3 77 500 89.3C516.7 101.7 533.3 123.3 550 125.5C566.7 127.7 583.3 110.3 600 105.5C616.7 100.7 633.3 108.3 650 104.2C666.7 100 683.3 84 700 77C716.7 70 733.3 72 750 74.5C766.7 77 783.3 80 800 87.5C816.7 95 833.3 107 850 108.2C866.7 109.3 883.3 99.7 891.7 94.8L900 90L900 0L891.7 0C883.3 0 866.7 0 850 0C833.3 0 816.7 0 800 0C783.3 0 766.7 0 750 0C733.3 0 716.7 0 700 0C683.3 0 666.7 0 650 0C633.3 0 616.7 0 600 0C583.3 0 566.7 0 550 0C533.3 0 516.7 0 500 0C483.3 0 466.7 0 450 0C433.3 0 416.7 0 400 0C383.3 0 366.7 0 350 0C333.3 0 316.7 0 300 0C283.3 0 266.7 0 250 0C233.3 0 216.7 0 200 0C183.3 0 166.7 0 150 0C133.3 0 116.7 0 100 0C83.3 0 66.7 0 50 0C33.3 0 16.7 0 8.3 0L0 0Z" fill="#91c145"></path>
<path d="M0 72L8.3 72.3C16.7 72.7 33.3 73.3 50 74.5C66.7 75.7 83.3 77.3 100 81.7C116.7 86 133.3 93 150 94.5C166.7 96 183.3 92 200 85.5C216.7 79 233.3 70 250 63.8C266.7 57.7 283.3 54.3 300 55.5C316.7 56.7 333.3 62.3 350 69.3C366.7 76.3 383.3 84.7 400 80.7C416.7 76.7 433.3 60.3 450 53.8C466.7 47.3 483.3 50.7 500 55.5C516.7 60.3 533.3 66.7 550 65.5C566.7 64.3 583.3 55.7 600 53.7C616.7 51.7 633.3 56.3 650 58.2C666.7 60 683.3 59 700 61C716.7 63 733.3 68 750 67.8C766.7 67.7 783.3 62.3 800 59.7C816.7 57 833.3 57 850 67.7C866.7 78.3 883.3 99.7 891.7 110.3L900 121L900 0L891.7 0C883.3 0 866.7 0 850 0C833.3 0 816.7 0 800 0C783.3 0 766.7 0 750 0C733.3 0 716.7 0 700 0C683.3 0 666.7 0 650 0C633.3 0 616.7 0 600 0C583.3 0 566.7 0 550 0C533.3 0 516.7 0 500 0C483.3 0 466.7 0 450 0C433.3 0 416.7 0 400 0C383.3 0 366.7 0 350 0C333.3 0 316.7 0 300 0C283.3 0 266.7 0 250 0C233.3 0 216.7 0 200 0C183.3 0 166.7 0 150 0C133.3 0 116.7 0 100 0C83.3 0 66.7 0 50 0C33.3 0 16.7 0 8.3 0L0 0Z" fill="#2ec295"></path>
<path d="M0 92L8.3 80.8C16.7 69.7 33.3 47.3 50 39.2C66.7 31 83.3 37 100 42.8C116.7 48.7 133.3 54.3 150 59.5C166.7 64.7 183.3 69.3 200 66.5C216.7 63.7 233.3 53.3 250 52.5C266.7 51.7 283.3 60.3 300 59.2C316.7 58 333.3 47 350 40.8C366.7 34.7 383.3 33.3 400 38.3C416.7 43.3 433.3 54.7 450 63.2C466.7 71.7 483.3 77.3 500 80.3C516.7 83.3 533.3 83.7 550 84.7C566.7 85.7 583.3 87.3 600 84.7C616.7 82 633.3 75 650 72.2C666.7 69.3 683.3 70.7 700 65.8C716.7 61 733.3 50 750 44.7C766.7 39.3 783.3 39.7 800 46.8C816.7 54 833.3 68 850 67.3C866.7 66.7 883.3 51.3 891.7 43.7L900 36L900 0L891.7 0C883.3 0 866.7 0 850 0C833.3 0 816.7 0 800 0C783.3 0 766.7 0 750 0C733.3 0 716.7 0 700 0C683.3 0 666.7 0 650 0C633.3 0 616.7 0 600 0C583.3 0 566.7 0 550 0C533.3 0 516.7 0 500 0C483.3 0 466.7 0 450 0C433.3 0 416.7 0 400 0C383.3 0 366.7 0 350 0C333.3 0 316.7 0 300 0C283.3 0 266.7 0 250 0C233.3 0 216.7 0 200 0C183.3 0 166.7 0 150 0C133.3 0 116.7 0 100 0C83.3 0 66.7 0 50 0C33.3 0 16.7 0 8.3 0L0 0Z" fill="#00b6c9"></path>
<path d="M0 38L8.3 38C16.7 38 33.3 38 50 37.5C66.7 37 83.3 36 100 33.8C116.7 31.7 133.3 28.3 150 26.2C166.7 24 183.3 23 200 24.5C216.7 26 233.3 30 250 34.3C266.7 38.7 283.3 43.3 300 40.7C316.7 38 333.3 28 350 22.2C366.7 16.3 383.3 14.7 400 16.7C416.7 18.7 433.3 24.3 450 26.3C466.7 28.3 483.3 26.7 500 29.7C516.7 32.7 533.3 40.3 550 40.8C566.7 41.3 583.3 34.7 600 34C616.7 33.3 633.3 38.7 650 39.3C666.7 40 683.3 36 700 35C716.7 34 733.3 36 750 38.7C766.7 41.3 783.3 44.7 800 40.8C816.7 37 833.3 26 850 23.2C866.7 20.3 883.3 25.7 891.7 28.3L900 31L900 0L891.7 0C883.3 0 866.7 0 850 0C833.3 0 816.7 0 800 0C783.3 0 766.7 0 750 0C733.3 0 716.7 0 700 0C683.3 0 666.7 0 650 0C633.3 0 616.7 0 600 0C583.3 0 566.7 0 550 0C533.3 0 516.7 0 500 0C483.3 0 466.7 0 450 0C433.3 0 416.7 0 400 0C383.3 0 366.7 0 350 0C333.3 0 316.7 0 300 0C283.3 0 266.7 0 250 0C233.3 0 216.7 0 200 0C183.3 0 166.7 0 150 0C133.3 0 116.7 0 100 0C83.3 0 66.7 0 50 0C33.3 0 16.7 0 8.3 0L0 0Z" fill="#009fe3"></path></svg>