<svg id="visual" viewBox="0 0 900 600" width="900" height="600" xmlns="http://www.w3.org/2000/svg" xmlns:xlink="http://www.w3.org/1999/xlink" version="1.1"><path d="M0 262L10 259C20 256 40 250 60 245.3C80 240.7 100 237.3 120 222.8C140 208.3 160 182.7 180 181.3C200 180 220 203 240 214.8C260 226.7 280 227.3 300 211C320 194.7 340 161.3 360 166.8C380 172.3 400 216.7 420 236.2C440 255.7 460 250.3 480 251.2C500 252 520 259 540 254.8C560 250.7 580 235.3 600 223.8C620 212.3 640 204.7 660 210.5C680 216.3 700 235.7 720 232.5C740 229.3 760 203.7 780 199.5C800 195.3 820 212.7 840 216.5C860 220.3 880 210.7 890 205.8L900 201L900 0L890 0C880 0 860 0 840 0C820 0 800 0 780 0C760 0 740 0 720 0C700 0 680 0 660 0C640 0 620 0 600 0C580 0 560 0 540 0C520 0 500 0 480 0C460 0 440 0 420 0C400 0 380 0 360 0C340 0 320 0 300 0C280 0 260 0 240 0C220 0 200 0 180 0C160 0 140 0 120 0C100 0 80 0 60 0C40 0 20 0 10 0L0 0Z" fill="#91c145"></path><path d="M0 162L10 150.3C20 138.7 40 115.3 60 114.7C80 114 100 136 120 139.2C140 142.3 160 126.7 180 134C200 141.3 220 171.7 240 174.8C260 178 280 154 300 142.8C320 131.7 340 133.3 360 128.7C380 124 400 113 420 122.7C440 132.3 460 162.7 480 167.2C500 171.7 520 150.3 540 148.5C560 146.7 580 164.3 600 163.7C620 163 640 144 660 139C680 134 700 143 720 156.8C740 170.7 760 189.3 780 191.2C800 193 820 178 840 179.3C860 180.7 880 198.3 890 207.2L900 216L900 0L890 0C880 0 860 0 840 0C820 0 800 0 780 0C760 0 740 0 720 0C700 0 680 0 660 0C640 0 620 0 600 0C580 0 560 0 540 0C520 0 500 0 480 0C460 0 440 0 420 0C400 0 380 0 360 0C340 0 320 0 300 0C280 0 260 0 240 0C220 0 200 0 180 0C160 0 140 0 120 0C100 0 80 0 60 0C40 0 20 0 10 0L0 0Z" fill="#48c383"></path><path d="M0 171L10 156.3C20 141.7 40 112.3 60 102.5C80 92.7 100 102.3 120 100.3C140 98.3 160 84.7 180 89.8C200 95 220 119 240 136.3C260 153.7 280 164.3 300 164.7C320 165 340 155 360 144.3C380 133.7 400 122.3 420 116.3C440 110.3 460 109.7 480 120.3C500 131 520 153 540 151.3C560 149.7 580 124.3 600 118C620 111.7 640 124.3 660 123C680 121.7 700 106.3 720 96.5C740 86.7 760 82.3 780 94.8C800 107.3 820 136.7 840 141.2C860 145.7 880 125.3 890 115.2L900 105L900 0L890 0C880 0 860 0 840 0C820 0 800 0 780 0C760 0 740 0 720 0C700 0 680 0 660 0C640 0 620 0 600 0C580 0 560 0 540 0C520 0 500 0 480 0C460 0 440 0 420 0C400 0 380 0 360 0C340 0 320 0 300 0C280 0 260 0 240 0C220 0 200 0 180 0C160 0 140 0 120 0C100 0 80 0 60 0C40 0 20 0 10 0L0 0Z" fill="#00bdb3"></path><path d="M0 86L10 94.2C20 102.3 40 118.7 60 113.7C80 108.7 100 82.3 120 78.3C140 74.3 160 92.7 180 92.3C200 92 220 73 240 68.8C260 64.7 280 75.3 300 74.7C320 74 340 62 360 55.5C380 49 400 48 420 58.7C440 69.3 460 91.7 480 98.5C500 105.3 520 96.7 540 92.3C560 88 580 88 600 83.2C620 78.3 640 68.7 660 63.8C680 59 700 59 720 68.3C740 77.7 760 96.3 780 95.7C800 95 820 75 840 78C860 81 880 107 890 120L900 133L900 0L890 0C880 0 860 0 840 0C820 0 800 0 780 0C760 0 740 0 720 0C700 0 680 0 660 0C640 0 620 0 600 0C580 0 560 0 540 0C520 0 500 0 480 0C460 0 440 0 420 0C400 0 380 0 360 0C340 0 320 0 300 0C280 0 260 0 240 0C220 0 200 0 180 0C160 0 140 0 120 0C100 0 80 0 60 0C40 0 20 0 10 0L0 0Z" fill="#00b1d3"></path><path d="M0 22L10 29C20 36 40 50 60 60.3C80 70.7 100 77.3 120 72.2C140 67 160 50 180 44.2C200 38.3 220 43.7 240 45.7C260 47.7 280 46.3 300 46.3C320 46.3 340 47.7 360 49.8C380 52 400 55 420 58.5C440 62 460 66 480 65C500 64 520 58 540 54.8C560 51.7 580 51.3 600 55.7C620 60 640 69 660 67.8C680 66.7 700 55.3 720 53.7C740 52 760 60 780 64.7C800 69.3 820 70.7 840 67.8C860 65 880 58 890 54.5L900 51L900 0L890 0C880 0 860 0 840 0C820 0 800 0 780 0C760 0 740 0 720 0C700 0 680 0 660 0C640 0 620 0 600 0C580 0 560 0 540 0C520 0 500 0 480 0C460 0 440 0 420 0C400 0 380 0 360 0C340 0 320 0 300 0C280 0 260 0 240 0C220 0 200 0 180 0C160 0 140 0 120 0C100 0 80 0 60 0C40 0 20 0 10 0L0 0Z" fill="#009fe3"></path></svg>