<svg id="visual" viewBox="0 0 900 600" width="900" height="600" xmlns="http://www.w3.org/2000/svg" xmlns:xlink="http://www.w3.org/1999/xlink" version="1.1"><path d="M0 179L10 187.5C20 196 40 213 60 207.8C80 202.7 100 175.3 120 183.3C140 191.3 160 234.7 180 240.8C200 247 220 216 240 204.5C260 193 280 201 300 208.8C320 216.7 340 224.3 360 216.5C380 208.7 400 185.3 420 177.8C440 170.3 460 178.7 480 196C500 213.3 520 239.7 540 249.7C560 259.7 580 253.3 600 239C620 224.7 640 202.3 660 199.2C680 196 700 212 720 205.8C740 199.7 760 171.3 780 156.8C800 142.3 820 141.7 840 160.3C860 179 880 217 890 236L900 255L900 0L890 0C880 0 860 0 840 0C820 0 800 0 780 0C760 0 740 0 720 0C700 0 680 0 660 0C640 0 620 0 600 0C580 0 560 0 540 0C520 0 500 0 480 0C460 0 440 0 420 0C400 0 380 0 360 0C340 0 320 0 300 0C280 0 260 0 240 0C220 0 200 0 180 0C160 0 140 0 120 0C100 0 80 0 60 0C40 0 20 0 10 0L0 0Z" fill="#91c145"></path><path d="M0 107L10 106.2C20 105.3 40 103.7 60 113C80 122.3 100 142.7 120 145.2C140 147.7 160 132.3 180 128.2C200 124 220 131 240 145.3C260 159.7 280 181.3 300 180.3C320 179.3 340 155.7 360 158.2C380 160.7 400 189.3 420 196.7C440 204 460 190 480 183.3C500 176.7 520 177.3 540 179.3C560 181.3 580 184.7 600 179C620 173.3 640 158.7 660 151.7C680 144.7 700 145.3 720 156.8C740 168.3 760 190.7 780 194.8C800 199 820 185 840 173.3C860 161.7 880 152.3 890 147.7L900 143L900 0L890 0C880 0 860 0 840 0C820 0 800 0 780 0C760 0 740 0 720 0C700 0 680 0 660 0C640 0 620 0 600 0C580 0 560 0 540 0C520 0 500 0 480 0C460 0 440 0 420 0C400 0 380 0 360 0C340 0 320 0 300 0C280 0 260 0 240 0C220 0 200 0 180 0C160 0 140 0 120 0C100 0 80 0 60 0C40 0 20 0 10 0L0 0Z" fill="#48c383"></path><path d="M0 94L10 101.8C20 109.7 40 125.3 60 127.8C80 130.3 100 119.7 120 116.8C140 114 160 119 180 130C200 141 220 158 240 152.5C260 147 280 119 300 103.8C320 88.7 340 86.3 360 98.5C380 110.7 400 137.3 420 144.8C440 152.3 460 140.7 480 133.3C500 126 520 123 540 118C560 113 580 106 600 102.3C620 98.7 640 98.3 660 92.7C680 87 700 76 720 76.5C740 77 760 89 780 97.8C800 106.7 820 112.3 840 109.2C860 106 880 94 890 88L900 82L900 0L890 0C880 0 860 0 840 0C820 0 800 0 780 0C760 0 740 0 720 0C700 0 680 0 660 0C640 0 620 0 600 0C580 0 560 0 540 0C520 0 500 0 480 0C460 0 440 0 420 0C400 0 380 0 360 0C340 0 320 0 300 0C280 0 260 0 240 0C220 0 200 0 180 0C160 0 140 0 120 0C100 0 80 0 60 0C40 0 20 0 10 0L0 0Z" fill="#00bdb3"></path><path d="M0 59L10 64.2C20 69.3 40 79.7 60 80.5C80 81.3 100 72.7 120 75.3C140 78 160 92 180 94.2C200 96.3 220 86.7 240 78.3C260 70 280 63 300 69.2C320 75.3 340 94.7 360 96.5C380 98.3 400 82.7 420 84.8C440 87 460 107 480 109.3C500 111.7 520 96.3 540 81.5C560 66.7 580 52.3 600 58C620 63.7 640 89.3 660 96C680 102.7 700 90.3 720 82.2C740 74 760 70 780 77.3C800 84.7 820 103.3 840 110.5C860 117.7 880 113.3 890 111.2L900 109L900 0L890 0C880 0 860 0 840 0C820 0 800 0 780 0C760 0 740 0 720 0C700 0 680 0 660 0C640 0 620 0 600 0C580 0 560 0 540 0C520 0 500 0 480 0C460 0 440 0 420 0C400 0 380 0 360 0C340 0 320 0 300 0C280 0 260 0 240 0C220 0 200 0 180 0C160 0 140 0 120 0C100 0 80 0 60 0C40 0 20 0 10 0L0 0Z" fill="#00b1d3"></path><path d="M0 68L10 69.3C20 70.7 40 73.3 60 73.3C80 73.3 100 70.7 120 62.7C140 54.7 160 41.3 180 41.3C200 41.3 220 54.7 240 54.8C260 55 280 42 300 37.7C320 33.3 340 37.7 360 37.2C380 36.7 400 31.3 420 32.8C440 34.3 460 42.7 480 47.3C500 52 520 53 540 53.5C560 54 580 54 600 54.2C620 54.3 640 54.7 660 54.3C680 54 700 53 720 52.8C740 52.7 760 53.3 780 52.7C800 52 820 50 840 48.7C860 47.3 880 46.7 890 46.3L900 46L900 0L890 0C880 0 860 0 840 0C820 0 800 0 780 0C760 0 740 0 720 0C700 0 680 0 660 0C640 0 620 0 600 0C580 0 560 0 540 0C520 0 500 0 480 0C460 0 440 0 420 0C400 0 380 0 360 0C340 0 320 0 300 0C280 0 260 0 240 0C220 0 200 0 180 0C160 0 140 0 120 0C100 0 80 0 60 0C40 0 20 0 10 0L0 0Z" fill="#009fe3"></path></svg>