<svg id="visual" viewBox="0 0 900 600" width="900" height="600" xmlns="http://www.w3.org/2000/svg" xmlns:xlink="http://www.w3.org/1999/xlink" version="1.1">
<path d="M0 139L8.3 135.2C16.7 131.3 33.3 123.7 50 112.2C66.7 100.7 83.3 85.3 100 92C116.7 98.7 133.3 127.3 150 135.2C166.7 143 183.3 130 200 116.2C216.7 102.3 233.3 87.7 250 82.8C266.7 78 283.3 83 300 82.3C316.7 81.7 333.3 75.3 350 72.2C366.7 69 383.3 69 400 80.5C416.7 92 433.3 115 450 123C466.7 131 483.3 124 500 113.7C516.7 103.3 533.3 89.7 550 93C566.7 96.3 583.3 116.7 600 116.8C616.7 117 633.3 97 650 86C666.7 75 683.3 73 700 75C716.7 77 733.3 83 750 92.2C766.7 101.3 783.3 113.7 800 121.7C816.7 129.7 833.3 133.3 850 129.5C866.7 125.7 883.3 114.3 891.7 108.7L900 103L900 0L891.7 0C883.3 0 866.7 0 850 0C833.3 0 816.7 0 800 0C783.3 0 766.7 0 750 0C733.3 0 716.7 0 700 0C683.3 0 666.7 0 650 0C633.3 0 616.7 0 600 0C583.3 0 566.7 0 550 0C533.3 0 516.7 0 500 0C483.3 0 466.7 0 450 0C433.3 0 416.7 0 400 0C383.3 0 366.7 0 350 0C333.3 0 316.7 0 300 0C283.3 0 266.7 0 250 0C233.3 0 216.7 0 200 0C183.3 0 166.7 0 150 0C133.3 0 116.7 0 100 0C83.3 0 66.7 0 50 0C33.3 0 16.7 0 8.3 0L0 0Z" fill="#91c145"></path>
<path d="M0 89L8.3 85.5C16.7 82 33.3 75 50 79C66.7 83 83.3 98 100 96.3C116.7 94.7 133.3 76.3 150 66.8C166.7 57.3 183.3 56.7 200 64.2C216.7 71.7 233.3 87.3 250 89.7C266.7 92 283.3 81 300 71.2C316.7 61.3 333.3 52.7 350 52C366.7 51.3 383.3 58.7 400 63C416.7 67.3 433.3 68.7 450 64.3C466.7 60 483.3 50 500 52.5C516.7 55 533.3 70 550 81.2C566.7 92.3 583.3 99.7 600 94.7C616.7 89.7 633.3 72.3 650 73.5C666.7 74.7 683.3 94.3 700 94.2C716.7 94 733.3 74 750 74.5C766.7 75 783.3 96 800 102.8C816.7 109.7 833.3 102.3 850 91.3C866.7 80.3 883.3 65.7 891.7 58.3L900 51L900 0L891.7 0C883.3 0 866.7 0 850 0C833.3 0 816.7 0 800 0C783.3 0 766.7 0 750 0C733.3 0 716.7 0 700 0C683.3 0 666.7 0 650 0C633.3 0 616.7 0 600 0C583.3 0 566.7 0 550 0C533.3 0 516.7 0 500 0C483.3 0 466.7 0 450 0C433.3 0 416.7 0 400 0C383.3 0 366.7 0 350 0C333.3 0 316.7 0 300 0C283.3 0 266.7 0 250 0C233.3 0 216.7 0 200 0C183.3 0 166.7 0 150 0C133.3 0 116.7 0 100 0C83.3 0 66.7 0 50 0C33.3 0 16.7 0 8.3 0L0 0Z" fill="#2ec295"></path>
<path d="M0 52L8.3 49.3C16.7 46.7 33.3 41.3 50 39.3C66.7 37.3 83.3 38.7 100 42.7C116.7 46.7 133.3 53.3 150 53.2C166.7 53 183.3 46 200 42.8C216.7 39.7 233.3 40.3 250 45.3C266.7 50.3 283.3 59.7 300 62.5C316.7 65.3 333.3 61.7 350 65.2C366.7 68.7 383.3 79.3 400 74.8C416.7 70.3 433.3 50.7 450 46.5C466.7 42.3 483.3 53.7 500 55.8C516.7 58 533.3 51 550 45.8C566.7 40.7 583.3 37.3 600 44.7C616.7 52 633.3 70 650 77.8C666.7 85.7 683.3 83.3 700 76C716.7 68.7 733.3 56.3 750 56.3C766.7 56.3 783.3 68.7 800 68.2C816.7 67.7 833.3 54.3 850 45.5C866.7 36.7 883.3 32.3 891.7 30.2L900 28L900 0L891.7 0C883.3 0 866.7 0 850 0C833.3 0 816.7 0 800 0C783.3 0 766.7 0 750 0C733.3 0 716.7 0 700 0C683.3 0 666.7 0 650 0C633.3 0 616.7 0 600 0C583.3 0 566.7 0 550 0C533.3 0 516.7 0 500 0C483.3 0 466.7 0 450 0C433.3 0 416.7 0 400 0C383.3 0 366.7 0 350 0C333.3 0 316.7 0 300 0C283.3 0 266.7 0 250 0C233.3 0 216.7 0 200 0C183.3 0 166.7 0 150 0C133.3 0 116.7 0 100 0C83.3 0 66.7 0 50 0C33.3 0 16.7 0 8.3 0L0 0Z" fill="#00b6c9"></path>
<path d="M0 58L8.3 58.2C16.7 58.3 33.3 58.7 50 51C66.7 43.3 83.3 27.7 100 26.2C116.7 24.7 133.3 37.3 150 43C166.7 48.7 183.3 47.3 200 40.7C216.7 34 233.3 22 250 22.7C266.7 23.3 283.3 36.7 300 43.2C316.7 49.7 333.3 49.3 350 47.2C366.7 45 383.3 41 400 35C416.7 29 433.3 21 450 18.2C466.7 15.3 483.3 17.7 500 24.7C516.7 31.7 533.3 43.3 550 42C566.7 40.7 583.3 26.3 600 20C616.7 13.7 633.3 15.3 650 22.2C666.7 29 683.3 41 700 41.8C716.7 42.7 733.3 32.3 750 26.7C766.7 21 783.3 20 800 19.8C816.7 19.7 833.3 20.3 850 24C866.7 27.7 883.3 34.3 891.7 37.7L900 41L900 0L891.7 0C883.3 0 866.7 0 850 0C833.3 0 816.7 0 800 0C783.3 0 766.7 0 750 0C733.3 0 716.7 0 700 0C683.3 0 666.7 0 650 0C633.3 0 616.7 0 600 0C583.3 0 566.7 0 550 0C533.3 0 516.7 0 500 0C483.3 0 466.7 0 450 0C433.3 0 416.7 0 400 0C383.3 0 366.7 0 350 0C333.3 0 316.7 0 300 0C283.3 0 266.7 0 250 0C233.3 0 216.7 0 200 0C183.3 0 166.7 0 150 0C133.3 0 116.7 0 100 0C83.3 0 66.7 0 50 0C33.3 0 16.7 0 8.3 0L0 0Z" fill="#009fe3"></path></svg>